<mxfile host="app.diagrams.net" modified="2023-11-13T09:24:20.918Z" agent="Mozilla/5.0 (Windows NT 10.0; Win64; x64) AppleWebKit/537.36 (KHTML, like Gecko) Chrome/119.0.0.0 Safari/537.36 Edg/119.0.0.0" etag="Y96pUMJ0touZzex6Vjyc" version="22.1.0" type="device">
  <diagram name="Page-1" id="s7gos8hGBFN3tPJVtq__">
    <mxGraphModel dx="548" dy="327" grid="1" gridSize="10" guides="1" tooltips="1" connect="1" arrows="1" fold="1" page="1" pageScale="1" pageWidth="850" pageHeight="1100" math="0" shadow="0">
      <root>
        <mxCell id="0" />
        <mxCell id="1" parent="0" />
        <mxCell id="K3F803vlpXESHOdlkgsK-1" value="" style="edgeStyle=orthogonalEdgeStyle;rounded=0;orthogonalLoop=1;jettySize=auto;html=1;" edge="1" parent="1" source="b6mkImTzZ8pXar9gf7VG-1" target="b6mkImTzZ8pXar9gf7VG-11">
          <mxGeometry relative="1" as="geometry" />
        </mxCell>
        <mxCell id="b6mkImTzZ8pXar9gf7VG-1" value="Bắt đầu" style="ellipse;whiteSpace=wrap;html=1;" parent="1" vertex="1">
          <mxGeometry x="240" y="80" width="90" height="50" as="geometry" />
        </mxCell>
        <mxCell id="K3F803vlpXESHOdlkgsK-4" value="" style="edgeStyle=orthogonalEdgeStyle;rounded=0;orthogonalLoop=1;jettySize=auto;html=1;" edge="1" parent="1" source="b6mkImTzZ8pXar9gf7VG-10">
          <mxGeometry relative="1" as="geometry">
            <mxPoint x="287.5" y="360" as="targetPoint" />
          </mxGeometry>
        </mxCell>
        <mxCell id="b6mkImTzZ8pXar9gf7VG-10" value="input(p,n)" style="rounded=0;whiteSpace=wrap;html=1;" parent="1" vertex="1">
          <mxGeometry x="240" y="250" width="95" height="40" as="geometry" />
        </mxCell>
        <mxCell id="K3F803vlpXESHOdlkgsK-2" value="" style="edgeStyle=orthogonalEdgeStyle;rounded=0;orthogonalLoop=1;jettySize=auto;html=1;" edge="1" parent="1" source="b6mkImTzZ8pXar9gf7VG-11">
          <mxGeometry relative="1" as="geometry">
            <mxPoint x="285.0000000000002" y="250" as="targetPoint" />
          </mxGeometry>
        </mxCell>
        <mxCell id="b6mkImTzZ8pXar9gf7VG-11" value="Nhập n" style="shape=parallelogram;perimeter=parallelogramPerimeter;whiteSpace=wrap;html=1;fixedSize=1;" parent="1" vertex="1">
          <mxGeometry x="232.5" y="160" width="105" height="40" as="geometry" />
        </mxCell>
        <mxCell id="b6mkImTzZ8pXar9gf7VG-19" value="Process" style="swimlane;fontStyle=0;childLayout=stackLayout;horizontal=1;startSize=26;horizontalStack=0;resizeParent=1;resizeParentMax=0;resizeLast=0;collapsible=1;marginBottom=0;align=center;fontSize=14;" parent="1" vertex="1">
          <mxGeometry x="500" y="80" width="260" height="116" as="geometry" />
        </mxCell>
        <mxCell id="b6mkImTzZ8pXar9gf7VG-20" value="int id;" style="text;strokeColor=none;fillColor=none;spacingLeft=4;spacingRight=4;overflow=hidden;rotatable=0;points=[[0,0.5],[1,0.5]];portConstraint=eastwest;fontSize=12;whiteSpace=wrap;html=1;" parent="b6mkImTzZ8pXar9gf7VG-19" vertex="1">
          <mxGeometry y="26" width="260" height="30" as="geometry" />
        </mxCell>
        <mxCell id="b6mkImTzZ8pXar9gf7VG-21" value="int arrival_time, burst_time;" style="text;strokeColor=none;fillColor=none;spacingLeft=4;spacingRight=4;overflow=hidden;rotatable=0;points=[[0,0.5],[1,0.5]];portConstraint=eastwest;fontSize=12;whiteSpace=wrap;html=1;" parent="b6mkImTzZ8pXar9gf7VG-19" vertex="1">
          <mxGeometry y="56" width="260" height="30" as="geometry" />
        </mxCell>
        <mxCell id="b6mkImTzZ8pXar9gf7VG-22" value="int start_time, remaining_time;" style="text;strokeColor=none;fillColor=none;spacingLeft=4;spacingRight=4;overflow=hidden;rotatable=0;points=[[0,0.5],[1,0.5]];portConstraint=eastwest;fontSize=12;whiteSpace=wrap;html=1;" parent="b6mkImTzZ8pXar9gf7VG-19" vertex="1">
          <mxGeometry y="86" width="260" height="30" as="geometry" />
        </mxCell>
        <mxCell id="K3F803vlpXESHOdlkgsK-9" style="edgeStyle=orthogonalEdgeStyle;rounded=0;orthogonalLoop=1;jettySize=auto;html=1;exitX=0.5;exitY=1;exitDx=0;exitDy=0;" edge="1" parent="1" source="K3F803vlpXESHOdlkgsK-7" target="K3F803vlpXESHOdlkgsK-8">
          <mxGeometry relative="1" as="geometry" />
        </mxCell>
        <mxCell id="K3F803vlpXESHOdlkgsK-7" value="Sort(p, n);&amp;nbsp;" style="rounded=0;whiteSpace=wrap;html=1;" vertex="1" parent="1">
          <mxGeometry x="225" y="360" width="120" height="60" as="geometry" />
        </mxCell>
        <mxCell id="K3F803vlpXESHOdlkgsK-8" value="int currentTime = 0; &lt;br&gt;int completedProcesses = 0; &lt;br&gt;int turnaroundTime[n]; &lt;br&gt;&lt;div style=&quot;&quot;&gt;&lt;span style=&quot;background-color: initial;&quot;&gt;int waitingTime[n];&lt;/span&gt;&lt;/div&gt;" style="rounded=0;whiteSpace=wrap;html=1;align=left;" vertex="1" parent="1">
          <mxGeometry x="200" y="460" width="170" height="60" as="geometry" />
        </mxCell>
        <mxCell id="K3F803vlpXESHOdlkgsK-12" value="completedProcesses &amp;lt; n" style="rhombus;whiteSpace=wrap;html=1;" vertex="1" parent="1">
          <mxGeometry x="200" y="570" width="160" height="80" as="geometry" />
        </mxCell>
      </root>
    </mxGraphModel>
  </diagram>
</mxfile>
